<svg width="760" height="760" viewBox="0 0 760 760" fill="none" xmlns="http://www.w3.org/2000/svg">
  <rect width="760" height="760" fill="#F8F4EE"/>
  <defs>
    <path
      id="topArc"
      d="M 120 380 A 260 260 0 0 1 640 380"
    />
    <path
      id="bottomArc"
      d="M 615 450 A 255 255 0 0 1 145 450"
    />
  </defs>

  <text fill="#09070A" font-size="72" font-weight="700" font-family="Georgia, 'Times New Roman', serif" letter-spacing="4">
    <textPath href="#topArc" startOffset="50%" text-anchor="middle">La Aaman Bakery</textPath>
  </text>

  <text fill="#09070A" font-size="42" font-weight="700" font-family="Georgia, 'Times New Roman', serif" letter-spacing="26">
    <textPath href="#bottomArc" startOffset="50%" text-anchor="middle">EST. 1998</textPath>
  </text>

  <path
    d="M225 430C290 365 444 362 538 390C505 428 440 450 365 448C305 446 252 442 225 430Z"
    fill="#09070A"
  />
  <path
    d="M210 425C287 331 464 331 553 379C495 368 443 365 390 369C317 375 262 393 210 425Z"
    fill="#09070A"
  />

  <text x="242" y="490" fill="#09070A" font-size="230" font-weight="700" font-family="Georgia, 'Times New Roman', serif">L</text>
  <text x="385" y="490" fill="#09070A" font-size="230" font-weight="700" font-family="Georgia, 'Times New Roman', serif">A</text>
  <text x="478" y="335" fill="#09070A" font-size="34" font-weight="700" font-family="Arial, sans-serif">TM</text>
</svg>
